<?xml version="1.0" encoding="UTF-8" standalone="no"?>
<!-- Created with Inkscape (http://www.inkscape.org/) -->

<svg
   width="1800"
   height="1800"
   viewBox="0 0 476.24999 476.25"
   version="1.1"
   id="svg5"
   xml:space="preserve"
   inkscape:version="1.2.1 (9c6d41e410, 2022-07-14)"
   sodipodi:docname="Planet.svg"
   xmlns:inkscape="http://www.inkscape.org/namespaces/inkscape"
   xmlns:sodipodi="http://sodipodi.sourceforge.net/DTD/sodipodi-0.dtd"
   xmlns="http://www.w3.org/2000/svg"
   xmlns:svg="http://www.w3.org/2000/svg"><sodipodi:namedview
     id="namedview7"
     pagecolor="#ffffff"
     bordercolor="#000000"
     borderopacity="0.25"
     inkscape:showpageshadow="2"
     inkscape:pageopacity="0.0"
     inkscape:pagecheckerboard="0"
     inkscape:deskcolor="#d1d1d1"
     inkscape:document-units="mm"
     showgrid="false"
     inkscape:zoom="0.17906145"
     inkscape:cx="1426.8845"
     inkscape:cy="868.41697"
     inkscape:window-width="1920"
     inkscape:window-height="991"
     inkscape:window-x="-9"
     inkscape:window-y="-9"
     inkscape:window-maximized="1"
     inkscape:current-layer="layer1" /><defs
     id="defs2" /><g
     inkscape:label="Layer 1"
     inkscape:groupmode="layer"
     id="layer1"><ellipse
       style="display:inline;fill:#3fbd81;fill-opacity:1;stroke-width:0.697319;stroke-linejoin:round"
       id="path1081"
       cx="238.125"
       cy="238.125"
       rx="216.20541"
       ry="216.28253" /><path
       id="path426"
       style="fill:#287db8;stroke-width:0.264583;fill-opacity:1"
       d="M 238.125 21.842078 A 216.20558 216.28273 0 0 0 208.18109 24.001119 C 208.9162 24.753996 208.64581 27.51062 207.30879 33.228463 C 207.02681 34.434349 206.79616 35.804158 206.79616 36.272721 C 206.79616 37.561857 206.37506 38.768006 205.60657 39.681299 C 205.22599 40.133598 204.61388 41.098207 204.24593 41.82432 C 203.87798 42.550432 202.54494 44.732 201.28384 46.672603 C 200.02274 48.613209 198.64302 50.770216 198.21788 51.466109 C 196.50148 54.275518 194.65413 57.008569 194.23776 57.354122 C 193.9951 57.555518 193.62864 58.044898 193.42334 58.441911 C 192.97374 59.311349 190.27126 60.698927 188.53991 60.949251 C 186.18937 61.289106 181.14101 62.64816 178.81958 63.566146 C 177.51841 64.080678 176.04782 64.582302 175.55156 64.680806 C 175.05531 64.77931 174.0708 65.215052 173.36358 65.649223 C 171.83406 66.588199 167.89412 66.958574 161.99218 66.717891 C 159.40542 66.612402 158.13245 66.682552 156.65194 67.01193 L 154.70787 67.444462 L 153.83299 68.951347 C 153.35182 69.780273 152.87512 70.657842 152.77362 70.901099 C 151.66396 73.560728 150.16102 74.790087 145.942 76.490938 C 140.61844 78.637067 140.03937 78.637932 137.79314 76.502307 C 134.14111 73.030108 130.18385 71.915042 128.89808 73.995483 C 128.66584 74.371249 125.77458 76.55358 124.86008 77.043359 C 124.44962 77.263186 123.72152 77.853901 123.24209 78.356458 C 122.32095 79.322035 120.88266 79.976905 117.63158 80.910307 C 116.54017 81.223657 114.93283 81.698643 114.0597 81.966056 C 113.18659 82.233468 111.24731 82.759882 109.74989 83.136011 C 105.23341 84.270487 106.12397 84.570237 98.778984 79.445797 C 96.551332 77.89161 95.455883 76.688944 95.454122 75.802608 A 216.20558 216.28273 0 0 0 40.034249 151.84189 C 40.061996 151.80636 40.100117 151.73619 40.124683 151.71012 C 40.850267 150.94018 43.319348 155.89493 45.953267 163.40605 C 46.952091 166.25438 46.861295 168.00428 45.427718 173.51396 C 44.864876 175.67713 44.464663 177.59396 43.935819 180.65771 C 43.747428 181.74912 43.443702 183.38297 43.260925 184.28849 C 42.918002 185.98743 43.425359 189.41524 44.466536 192.43167 C 44.667453 193.01375 45.086417 194.50204 45.397229 195.73896 C 45.70804 196.97589 46.22288 198.40464 46.541345 198.91396 C 47.319629 200.15867 47.358222 216.33984 46.594572 221.20975 C 46.097875 224.37727 46.130252 230.94485 46.686556 239.85823 C 46.852309 242.51398 47.110063 246.80024 47.259131 249.38323 C 47.408203 251.96622 47.643654 255.50833 47.782613 257.25458 C 47.921572 259.00083 48.102393 264.04637 48.184139 268.46733 C 48.29583 274.50793 48.425244 276.72769 48.705554 277.39857 C 48.910707 277.88958 49.386243 279.66306 49.762337 281.33993 C 50.138429 283.01681 50.559976 284.68869 50.699231 285.05495 C 52.409916 289.5544 52.108057 291.786 49.698258 292.45502 C 44.819555 293.80948 44.012049 294.46416 42.043945 298.65826 C 41.257689 300.3338 40.434589 302.00223 40.2146 302.36604 C 39.644791 303.30835 37.934465 306.97886 37.194112 308.84833 C 36.848328 309.72145 36.285213 310.82279 35.942509 311.29573 C 35.595364 311.7748 35.332139 312.04184 35.097599 312.08948 A 216.20558 216.28273 0 0 0 104.66183 408.21023 C 104.51078 408.03949 104.40241 407.89853 104.40241 407.83557 C 104.40241 407.16495 105.91357 406.0416 106.95264 405.94008 C 117.56474 404.90323 118.97044 405.08061 121.60136 407.78751 C 123.78717 410.03644 124.58173 410.757 125.24765 411.09532 C 125.98569 411.47032 130.05111 412.15715 131.5713 412.16347 C 132.99754 412.16942 136.2493 412.83816 137.60762 413.40474 C 139.95512 414.38397 144.59682 416.68041 144.75912 416.94303 C 144.85435 417.0971 145.57318 417.50665 146.35644 417.85305 C 147.2815 418.26214 147.96111 418.77934 148.29534 419.32893 C 149.00546 420.49664 152.17022 424.00095 155.09028 426.8525 C 158.86338 430.53705 159.16904 431.17268 159.24299 435.4897 L 159.30345 439.02333 L 158.37741 439.09206 C 158.35231 439.09393 158.28948 439.07526 158.25856 439.07397 A 216.20558 216.28273 0 0 0 238.125 454.40792 A 216.20558 216.28273 0 0 0 384.26182 397.46359 C 383.77463 397.67473 383.50625 397.56592 383.38332 397.15302 C 383.30749 396.89835 383.01403 396.21375 382.73116 395.63167 C 382.44833 395.04959 381.57979 392.72786 380.80105 390.47229 C 380.02233 388.21671 378.817 384.88296 378.12266 383.06396 C 376.39276 378.53213 376.38935 378.43515 377.84825 375.25875 C 378.51661 373.80354 379.48562 371.60089 380.00161 370.36396 C 380.5176 369.12704 381.1663 367.62777 381.44287 367.03238 C 381.92526 365.99384 382.31767 364.90044 384.09283 359.64833 C 385.14023 356.5494 385.03426 356.18137 382.48053 354.04092 C 379.8403 351.82797 379.80327 351.56828 381.38344 346.4109 C 381.95947 344.5309 383.4987 338.5185 383.72748 337.25487 C 383.94055 336.07793 382.94925 334.32119 381.27285 332.90474 C 380.42521 332.18852 379.28703 331.18579 378.74329 330.67646 L 377.75472 329.75042 L 378.38672 326.17854 C 379.94784 317.36107 379.85236 317.18317 373.26559 316.65922 C 368.5028 316.28036 368.51116 316.57084 373.10332 311.00169 C 374.84205 308.89304 375.86491 307.12796 375.86491 306.2366 C 375.86491 305.32393 375.23434 303.80907 374.7332 303.51739 C 374.52013 303.39341 373.01593 301.8241 371.39025 300.02975 C 367.73668 295.99702 367.70961 296.45175 371.86774 292.04729 C 373.17287 290.66484 375.16129 288.52171 376.28659 287.28479 C 377.41189 286.04786 378.88307 284.44052 379.55564 283.71292 C 381.17021 281.96622 382.61657 280.15511 384.20497 277.89208 C 387.15555 273.68831 390.15908 272.12087 396.50241 271.47542 C 399.24913 271.19594 401.79408 269.12338 401.79408 267.1656 C 401.79408 266.69171 404.21228 261.25526 404.64093 260.76548 C 405.15906 260.17349 405.93279 260.05668 410.27625 259.91385 C 413.18627 259.81817 414.25479 259.66836 415.93275 259.12062 C 417.07051 258.74922 418.13465 258.44433 418.29798 258.44366 C 418.4613 258.44298 419.30949 258.14859 420.18262 257.78892 C 422.29359 256.91932 424.1311 256.92887 426.53262 257.82251 C 430.47919 259.29108 431.37679 258.92896 436.67981 253.72715 C 441.33265 249.1631 441.6644 248.97834 446.05908 248.50938 C 451.03646 247.97823 453.54734 248.00024 453.76868 248.57708 C 453.83106 248.73963 453.86629 249.05479 453.91183 249.31346 A 216.20558 216.28273 0 0 0 454.33041 238.125 A 216.20558 216.28273 0 0 0 421.15621 123.02091 L 421.40374 123.55111 L 420.82858 125.40992 C 419.97519 128.16727 419.03544 130.46037 418.66127 130.69797 C 418.16184 131.01509 417.67538 130.92943 416.08158 130.24373 C 415.28122 129.89939 414.40742 129.61231 414.13958 129.60553 C 413.44217 129.58787 405.82666 127.06182 401.98167 125.5727 C 400.80031 125.11518 399.942 124.31084 399.942 123.6617 C 399.942 123.33105 399.69538 122.35735 399.39371 121.49801 C 399.092 120.63868 398.74476 119.38843 398.62218 118.71937 C 398.4996 118.05031 397.97921 116.26437 397.46566 114.75062 C 396.9521 113.23686 396.2991 111.10537 396.0151 110.01396 C 395.73112 108.92256 395.14473 106.95802 394.71182 105.64833 C 394.27891 104.33864 393.48394 101.7788 392.94501 99.95979 C 390.63572 92.165704 390.7243 92.322679 385.5222 86.813306 C 384.35804 85.580378 383.19191 84.159768 382.93063 83.655876 C 382.66936 83.151982 382.17884 82.634096 381.84078 82.505558 C 380.20756 81.884614 379.8782 80.708351 380.57935 78.000407 C 380.86207 76.908557 380.98836 76.221376 381.59221 76.334359 A 216.20558 216.28273 0 0 0 238.125 21.842078 z M 341.17556 98.117525 C 342.78517 98.223433 342.56593 99.935122 342.39822 104.8551 C 342.15758 111.91466 342.04191 111.64724 346.62845 114.6297 C 351.89765 118.05604 354.16908 119.88161 354.16908 120.69031 C 354.16908 120.91871 354.71885 121.78058 355.39071 122.60544 C 357.1346 124.74645 358.54816 127.67775 359.18944 130.48196 C 359.49361 131.81204 359.84332 133.13854 359.96614 133.42958 C 360.08895 133.72062 360.33133 134.73265 360.50461 135.67854 C 360.67789 136.62442 361.16875 138.52436 361.5955 139.90102 C 362.02224 141.27768 362.3753 142.70643 362.38046 143.07602 C 362.40092 144.5404 363.37232 145.47405 366.07533 146.62723 C 374.08267 150.04335 374.12448 150.11998 370.38463 154.54974 C 367.3755 158.11397 366.94132 159.21122 367.34605 162.23403 C 367.74605 165.22166 368.192 170.01394 368.192 171.32598 C 368.192 173.47845 369.4015 175.4386 371.68636 176.99023 C 373.18983 178.01122 374.2803 179.52361 374.27535 180.58071 C 374.27414 180.84117 374.4472 181.82848 374.65982 182.77437 C 374.87247 183.72026 375.23819 185.62527 375.47269 187.00771 C 375.70719 188.39016 376.10355 190.65234 376.35377 192.03479 C 376.70355 193.96732 376.76403 195.15993 376.61422 197.19417 C 376.50706 198.64937 376.35211 206.15032 376.27006 213.86292 C 376.11272 228.65808 375.9831 230.34882 374.90993 231.59775 C 374.56211 232.00252 374.27741 232.43512 374.27741 232.55945 C 374.27741 232.68377 373.43469 233.69443 372.40466 234.80531 C 370.28911 237.08694 369.81215 237.78734 367.99356 241.2814 C 364.65212 247.70139 361.75958 253.64354 361.4415 254.74104 C 361.33606 255.10484 360.5538 256.91435 359.70311 258.76198 C 358.85242 260.60962 357.73442 263.21383 357.21851 264.54974 L 356.28058 266.97905 L 356.25267 271.9033 C 356.21518 278.54933 356.6294 277.90293 348.45573 284.05915 C 344.10879 287.3332 344.5272 286.3283 344.51902 293.52472 C 344.51093 300.66283 344.69322 300.16124 341.73005 301.18988 C 337.02354 302.82373 337.04715 302.78068 336.86781 310.03896 C 336.66694 318.17021 336.5396 318.64293 334.1455 320.12258 C 333.64097 320.4344 332.63471 321.25861 331.90946 321.95399 C 331.18421 322.64934 329.76819 323.76978 328.76288 324.44428 C 327.75754 325.11879 326.86806 325.77902 326.78625 325.91137 C 326.64788 326.13526 324.37816 327.37043 322.55137 328.21614 C 322.11481 328.41823 321.45996 328.7548 321.09616 328.9639 C 320.73235 329.173 319.89893 329.61556 319.24408 329.9473 C 318.58924 330.27906 317.39861 330.97479 316.59825 331.49346 C 315.79788 332.01212 314.01194 333.12028 312.6295 333.95584 C 304.16754 339.07029 302.82744 340.09329 301.02607 342.81112 C 300.20481 344.05021 299.32625 345.36848 299.07373 345.74117 C 298.82124 346.11389 298.48535 346.71658 298.32753 347.08011 C 298.16973 347.44365 297.88438 347.91989 297.69346 348.13844 C 297.50251 348.35698 297.25805 348.83348 297.15034 349.19729 C 297.04262 349.56109 296.57778 350.335 296.11733 350.91708 C 295.65687 351.49916 295.07516 352.30018 294.82438 352.69733 C 294.25931 353.59226 293.23005 354.13908 291.41012 354.51066 C 287.67624 355.27297 282.74224 357.093 281.80554 358.0536 C 280.04783 359.8561 276.16865 364.49971 275.26227 365.88619 C 273.6508 368.35131 273.26883 368.48963 267.38575 368.74493 C 265.06689 368.84555 263.31536 369.04471 262.95759 369.24826 C 261.87849 369.8622 259.78421 372.6577 259.31182 374.11463 C 258.12344 377.77977 254.61279 381.95603 251.96085 382.85983 C 251.49493 383.01864 250.82687 383.37003 250.47618 383.64067 C 249.73697 384.21109 243.80878 387.09094 242.45238 387.53862 C 241.33163 387.9085 240.6432 387.68228 238.94459 386.38572 C 238.26669 385.86824 237.56079 385.44521 237.37621 385.44521 C 237.19164 385.44521 236.27843 384.95006 235.34636 384.34502 C 232.56515 382.53956 231.98878 382.58964 227.26416 385.04626 C 223.88951 386.80095 223.0142 387.14094 221.08366 387.4487 C 219.84674 387.64587 217.88221 387.98577 216.71804 388.20421 C 213.62086 388.78537 212.18691 388.72903 210.63262 387.96443 C 209.90502 387.60653 209.20688 387.31011 209.08129 387.30556 C 208.95569 387.30101 207.58647 386.68343 206.03859 385.93355 C 204.4907 385.18369 202.3388 384.1419 201.25645 383.61844 C 199.12447 382.5874 196.60176 380.30458 195.41908 378.33608 C 192.01966 372.67798 188.63151 369.14343 186.15194 368.66845 C 185.64648 368.57164 184.33965 368.08524 183.24825 367.5879 C 182.15684 367.09054 180.14865 366.19568 178.78547 365.59939 C 176.23479 364.48361 174.20782 362.79207 172.24168 360.13719 C 171.02789 358.4982 165.44761 352.02517 164.74963 351.44677 C 162.92909 349.93812 162.10574 349.91408 160.2295 351.31396 C 159.44933 351.89605 158.73042 352.37229 158.63166 352.37229 C 158.5329 352.37229 157.92908 352.78783 157.29014 353.29575 C 155.36048 354.82967 155.17583 354.71324 153.73015 351.04937 C 153.18467 349.66692 152.65064 348.41677 152.54314 348.27125 C 152.43563 348.12572 151.96504 346.99464 151.49721 345.75771 C 149.40105 340.21557 149.83058 340.48976 142.01717 339.7002 C 138.68016 339.36299 138.04804 338.59605 137.20765 333.86438 C 136.09464 327.59772 134.71018 323.67093 133.02547 322.00308 C 131.16006 320.15632 127.48936 317.19895 124.11025 314.82006 C 120.80211 312.49112 116.83783 307.33672 116.83783 305.36431 C 116.83783 305.17868 116.53077 304.33865 116.15518 303.49775 C 112.25541 294.76674 112.04058 289.81416 115.2927 283.58682 C 116.64785 280.9919 116.82127 279.07961 116.07302 274.98167 C 114.97653 268.97653 114.16942 266.2406 112.84324 264.0335 C 112.28549 263.10527 111.68716 261.91463 111.51361 261.38766 C 111.34006 260.86069 110.86528 260.01286 110.45837 259.50354 C 108.60561 257.18441 107.94452 254.67138 108.50294 252.06989 C 110.74125 241.64249 110.71237 241.36711 106.44828 232.51604 C 105.36164 230.26046 104.38191 228.00114 104.27115 227.49567 C 104.16038 226.99022 103.77746 226.11365 103.42004 225.54747 C 101.96788 223.24709 101.786 220.65731 102.88778 217.96396 C 103.14433 217.33684 103.89078 213.83384 104.38174 210.9525 C 104.50572 210.22489 104.76416 209.09381 104.95587 208.43896 C 105.37388 207.01108 105.35994 201.50724 104.93365 199.57542 C 104.7731 198.84782 104.54283 197.2358 104.42153 195.9932 C 104.30021 194.75061 104.05439 193.07891 103.87531 192.2787 C 103.44159 190.34065 103.97613 188.72475 105.67572 186.83666 C 106.35782 186.07892 107.51127 184.77133 108.23887 183.93089 C 108.96648 183.09045 109.96494 181.99624 110.45786 181.49952 C 110.95078 181.00279 112.15518 179.60348 113.13418 178.38963 C 114.11319 177.17578 115.65841 175.37374 116.56756 174.38522 C 118.50503 172.27861 119.14616 171.0099 119.35964 168.86256 C 119.6894 165.54562 120.38866 161.0034 120.94507 158.565 C 121.1443 157.69187 121.44786 155.881 121.61945 154.54095 C 122.00596 151.52232 122.15296 151.37346 125.51017 150.60476 C 127.82766 150.07412 131.12996 149.21629 137.73991 147.42718 C 138.97684 147.09238 140.61618 146.81202 141.38258 146.80448 C 143.42591 146.78437 149.15253 143.7191 153.7472 140.18628 C 155.14785 139.10932 158.95373 136.5983 160.02382 136.04493 C 161.22818 135.42213 165.95131 135.72658 171.73887 136.79992 C 176.95006 137.76635 181.16716 136.89118 189.22824 133.17068 C 191.97858 131.90129 193.93319 132.16155 197.49802 134.27191 C 198.17372 134.67192 199.88568 135.57096 201.30244 136.26972 C 204.50086 137.8472 205.4256 138.64763 206.31971 140.61312 C 208.44434 145.28361 209.25872 146.95579 209.73604 147.62613 C 210.38691 148.5402 212.65586 150.05218 214.0412 150.49521 C 214.60628 150.67592 216.26059 151.3453 217.71746 151.98245 C 219.17434 152.61961 220.51466 153.14104 220.69557 153.14104 C 220.87647 153.14104 221.62999 153.55776 222.37041 154.06708 C 223.11084 154.5764 223.87185 154.99312 224.06126 154.99312 C 225.6868 154.99312 225.8474 156.10425 224.6359 158.97169 C 224.11561 160.20313 223.53482 161.62755 223.34554 162.13687 C 223.15626 162.64619 222.73748 163.56698 222.41485 164.18326 C 221.164 166.57254 221.97005 169.25548 225.4989 174.45033 C 227.1637 176.9011 226.84755 176.79042 232.20236 176.80678 L 236.92507 176.82125 L 237.88987 175.89521 C 238.82409 174.99855 241.72116 170.85363 241.72116 170.41389 C 241.72116 169.028 244.69254 166.83128 249.15327 164.91913 C 257.3128 161.42145 257.44074 161.18492 254.36174 155.29956 C 253.4741 153.6029 252.40717 151.55941 251.99082 150.75824 C 250.58132 148.04601 250.6461 147.56078 252.60422 146.15749 C 254.45813 144.82888 256.85341 142.52525 257.35432 141.58929 C 257.72328 140.89988 257.26179 139.00616 256.10736 136.47074 C 255.72957 135.64098 255.42335 134.44526 255.39578 133.69261 L 255.3472 132.37125 L 258.82658 132.29735 L 262.30595 132.22397 L 263.36119 130.84214 C 263.94152 130.08227 264.74067 128.80598 265.1373 128.00562 C 265.53394 127.20526 266.00635 126.37182 266.18685 126.15354 C 266.36735 125.93526 267.56899 123.7326 268.85749 121.25875 C 270.14598 118.78489 271.5852 116.04645 272.05523 115.17333 C 272.52526 114.3002 273.25601 112.87145 273.67942 111.99833 C 274.38583 110.54156 276.29441 108.42646 276.90248 108.42646 C 277.04252 108.42646 277.54792 108.09327 278.02592 107.68593 C 278.89981 106.94124 282.08295 104.98687 282.42204 104.98687 C 282.522 104.98687 283.65393 104.2725 284.93713 103.39937 C 288.28406 101.12202 289.73601 101.65966 293.37847 106.5258 C 295.12564 108.85991 297.77243 109.52324 300.42042 108.29055 C 306.40932 105.50258 309.98629 104.46198 314.87845 104.08357 C 317.7051 103.86492 321.79977 103.07415 325.99095 101.93796 C 327.88272 101.42512 329.90679 100.89692 330.48887 100.76388 C 331.07096 100.63084 333.50458 99.978788 335.89681 99.314868 C 338.58583 98.568574 340.20979 98.053981 341.17556 98.117525 z M 219.59693 125.22802 C 221.16295 125.29546 223.15035 125.7222 226.24304 126.53801 C 227.55273 126.88349 229.57679 127.36916 230.74095 127.61702 C 235.00214 128.52423 240.02302 130.67652 240.74758 131.90668 C 241.26407 132.78358 238.21399 134.76776 234.15677 136.19375 C 233.3069 136.49246 232.07159 136.71427 231.41171 136.68675 C 227.83872 136.53777 226.7411 136.44731 223.5972 136.04131 L 220.15762 135.59689 L 218.58149 133.98407 C 217.71454 133.09699 216.7025 131.94158 216.33253 131.41678 C 213.1971 126.96924 213.21403 127.07531 215.47884 126.07448 C 216.88637 125.45248 218.03091 125.16057 219.59693 125.22802 z M 261.08742 138.92072 C 261.05545 138.95269 261.03575 139.02111 261.03575 139.11812 C 261.03575 139.31215 261.11493 139.39135 261.21196 139.29434 C 261.30895 139.19733 261.30895 139.03841 261.21196 138.94139 C 261.16345 138.89289 261.11939 138.88875 261.08742 138.92072 z M 91.549967 190.24937 C 92.116521 190.24132 92.563081 190.88236 93.239787 192.16708 C 94.990409 195.49062 95.786364 198.92076 95.381775 201.39701 C 95.289422 201.96226 95.297702 202.79694 95.400378 203.25219 C 95.589957 204.09275 95.265159 207.0496 94.870695 208.07464 C 94.732651 208.43335 93.617922 209.16469 91.789229 210.0957 C 90.213417 210.89797 88.520021 211.64029 88.025635 211.74573 L 87.126465 211.93745 L 87.299064 211.07445 C 87.394018 210.59968 87.696774 209.72329 87.971375 209.12677 C 90.747716 203.09574 90.804573 202.31906 88.609578 200.4472 C 85.038745 197.40204 84.759941 196.75965 86.3446 195.22736 C 86.890303 194.69969 88.148169 193.34894 89.139779 192.22548 C 90.296729 190.91468 90.983414 190.25742 91.549967 190.24937 z M 22.357808 226.40789 A 216.20558 216.28273 0 0 0 21.919592 238.125 A 216.20558 216.28273 0 0 0 22.329903 249.09074 C 22.243693 242.11054 22.244342 233.04063 22.357808 226.40789 z M 88.147074 229.13795 C 90.171442 229.21668 91.702937 230.46358 93.577234 233.44208 C 94.035095 234.16968 95.044598 235.5444 95.820508 236.49719 C 98.508347 239.79776 98.497029 240.15033 95.423633 249.0525 C 92.95611 256.19973 92.969585 256.4773 95.983805 260.49366 C 97.146484 262.04291 98.276117 263.75653 98.494246 264.3017 C 98.712376 264.84687 99.175238 265.47915 99.522607 265.70678 C 101.03758 266.69941 103.0795 270.09461 103.0795 271.62115 C 103.0795 272.70271 101.64973 275.7718 100.62021 276.89989 C 99.790584 277.80897 98.399063 277.51168 96.108346 275.93561 C 95.416706 275.45976 93.457699 274.38083 91.755123 273.53834 C 87.24704 271.30756 87.706298 272.7787 87.567782 260.11746 C 87.477088 251.8276 87.3644 249.07104 87.082023 248.25875 C 86.879675 247.67666 86.578955 246.48604 86.414364 245.61292 C 86.249775 244.7398 85.999225 243.6487 85.857292 243.18826 C 85.715356 242.72782 85.438063 241.53718 85.241309 240.54242 C 84.720844 237.91102 84.287173 236.29343 83.620736 234.50042 C 82.004194 230.15119 82.29274 229.72677 87.246871 229.17413 C 87.558638 229.13935 87.857879 229.1267 88.147074 229.13795 z M 78.63551 280.31416 C 78.982425 280.31856 79.452743 280.39268 80.059713 280.51776 C 81.475068 280.80944 81.890332 281.02677 82.562402 281.82724 C 83.005577 282.35511 83.508689 282.7869 83.68068 282.78687 C 86.07393 282.78679 87.018501 289.24265 84.890426 291.0551 C 82.778278 292.854 80.32533 290.81142 80.32533 287.25378 C 80.32533 287.01714 79.259513 284.38411 78.463428 282.65458 C 77.662362 280.91425 77.594765 280.30094 78.63551 280.31416 z M 96.966174 287.54886 C 97.26853 287.53093 97.642475 287.89257 98.061715 288.7586 C 98.372354 289.40029 99.147904 290.42245 99.785124 291.02978 C 100.89816 292.09057 102.02116 294.48483 102.02116 295.79693 C 102.02116 297.75138 104.4843 303.87483 105.83437 305.27646 C 110.56944 310.19241 110.70251 311.27507 106.66067 312.0099 C 106.08361 312.11481 105.28564 312.36945 104.88765 312.57524 C 103.32037 313.38574 102.3065 312.92982 101.75038 311.1655 C 101.57796 310.61847 100.99101 309.04016 100.44607 307.65771 C 99.901114 306.27527 99.367738 304.66791 99.260608 304.08583 C 99.153478 303.50375 98.846952 302.61079 98.579513 302.10146 C 97.782923 300.58437 97.259129 298.65442 97.256079 297.22579 C 97.254499 296.4877 97.077018 295.30335 96.861788 294.5939 C 95.793755 291.07343 96.059106 287.60265 96.966174 287.54886 z M 349.59727 312.38145 C 349.93973 312.41707 350.38973 312.60338 351.05247 312.91475 C 354.40657 314.49058 354.42222 314.93998 351.24161 318.42914 C 348.81618 321.08987 348.59342 322.76286 350.34864 325.14191 C 352.28351 327.76449 352.27628 330.00165 350.33262 330.04239 C 348.41678 330.08256 348.44018 330.07557 347.5638 330.93226 C 346.62664 331.84834 346.49652 333.15369 347.17933 334.78783 C 347.95055 336.63369 347.22266 338.1161 345.11227 338.99791 C 343.59486 339.6319 343.50661 339.58632 340.4123 336.55672 C 336.9425 333.15947 336.83686 332.8078 338.51681 330.24341 C 339.49676 328.74756 341.21512 325.81606 341.96207 324.36521 C 343.23381 321.89499 346.42216 316.36864 347.02533 315.58952 C 347.42189 315.07726 347.99585 314.16963 348.3007 313.57207 C 348.75542 312.68074 349.02649 312.32208 349.59727 312.38145 z M 378.11387 318.50562 C 378.18663 318.50562 378.24616 318.56516 378.24616 318.63792 C 378.24616 318.71067 378.18663 318.77021 378.11387 318.77021 C 378.0411 318.77021 377.98158 318.71067 377.98158 318.63792 C 377.98158 318.56516 378.0411 318.50562 378.11387 318.50562 z M 117.60574 324.84219 L 120.19835 326.0695 C 121.6243 326.7444 123.02908 327.50619 123.32012 327.76294 C 123.61116 328.01967 124.32554 328.37781 124.90762 328.55876 C 128.47986 329.66916 128.96375 330.35289 127.95705 332.86702 C 126.26658 337.08876 126.266 338.24484 127.95395 339.31469 C 130.44348 340.89261 131.01287 341.80181 129.76056 342.19927 C 129.47334 342.29044 128.6379 342.89806 127.90434 343.54957 C 127.17077 344.20108 126.27817 344.84502 125.92048 344.98101 C 124.06299 345.68721 123.51027 345.31328 121.9879 342.31812 C 121.43317 341.22671 120.71327 339.96874 120.388 339.52295 C 120.06272 339.07713 119.6217 338.29363 119.4077 337.78145 C 119.0302 336.87798 117.94785 335.30914 116.27662 333.24323 C 115.82939 332.69036 114.9817 331.9338 114.39302 331.56219 C 111.08862 329.47621 111.77877 327.41967 116.48178 325.33931 L 117.60574 324.84219 z M 326.23022 343.1682 C 327.33819 343.39368 327.44051 344.88737 327.47045 348.61748 C 327.50514 352.93434 327.37867 353.29624 325.52328 354.1944 C 324.88725 354.50232 323.42284 355.46781 322.2687 356.34001 C 321.11456 357.21221 320.04219 357.92628 319.8859 357.92699 C 319.72961 357.92768 319.01581 358.34526 318.29943 358.85458 C 317.58308 359.3639 316.9371 359.77559 316.86386 359.76977 C 316.15634 359.71346 315.19952 358.7479 314.58235 357.46759 C 314.17836 356.62955 313.44403 355.40838 312.95092 354.75354 C 310.7605 351.84476 310.7933 350.97465 313.15918 349.21538 C 314.17809 348.45772 315.13465 347.60777 315.28515 347.3266 C 315.60241 346.73377 317.47484 345.73263 319.37637 345.13914 C 320.10398 344.91207 321.71132 344.36472 322.94825 343.92268 C 324.53864 343.35432 325.56543 343.03291 326.23022 343.1682 z M 337.47449 350.68402 C 337.7708 350.68855 338.15492 350.9047 338.64496 351.269 C 339.25239 351.72053 340.40414 352.55852 341.2045 353.1309 C 342.00486 353.70324 343.09946 354.70372 343.63691 355.35454 C 344.17433 356.00539 345.2723 356.90928 346.07655 357.3632 C 346.88083 357.8171 347.70921 358.51674 347.91778 358.91814 C 348.12638 359.31954 348.79135 359.94598 349.39521 360.30979 C 352.49367 362.1765 352.45654 362.989 349.16835 365.30897 C 347.31322 366.61786 347.0878 366.52355 345.76081 363.88167 C 344.52002 361.41136 343.79146 361.01097 340.22006 360.83844 C 336.69211 360.66802 336.77993 360.73738 336.68384 358.06083 C 336.48635 352.56058 336.58556 350.67042 337.47449 350.68402 z M 296.47648 363.75454 C 297.91089 363.61641 297.87198 364.72313 297.21442 368.37958 C 296.97889 369.68927 296.70711 371.27887 296.61032 371.91218 C 296.24565 374.29793 292.24139 376.199 282.84837 378.44512 C 280.8024 378.93436 278.80001 379.45899 278.39903 379.61145 C 277.99805 379.7639 277.30592 379.88896 276.86062 379.88896 C 275.8152 379.88896 273.33739 380.99431 270.80104 382.59215 C 268.72266 383.90152 268.51257 383.98165 268.01672 383.65514 C 267.49579 383.31208 266.58741 381.25027 266.42043 380.0321 C 266.23522 378.68085 265.8544 378.95152 270.16387 377.36921 C 271.61908 376.83491 273.58361 376.09877 274.5295 375.73314 C 275.47538 375.36751 277.43107 374.78058 278.87548 374.42882 C 282.13552 373.63489 283.64982 372.73746 286.76648 369.75314 C 287.25161 369.28859 288.28952 368.4325 289.07279 367.85042 C 289.85609 367.26834 290.8723 366.39551 291.33157 365.911 C 291.94604 365.26278 292.7884 364.82664 294.51949 364.25942 C 295.35657 363.98514 295.99834 363.80059 296.47648 363.75454 z " /></g></svg>
